<mxfile host="app.diagrams.net" modified="2021-07-01T06:08:12.475Z" agent="5.0 (Macintosh; Intel Mac OS X 10_15_7) AppleWebKit/605.1.15 (KHTML, like Gecko) Version/14.1.1 Safari/605.1.15" etag="H2DSaczEji3BxNpeI_0d" version="14.8.3" type="github">
  <diagram id="C5RBs43oDa-KdzZeNtuy" name="Page-1">
    <mxGraphModel dx="1554" dy="872" grid="1" gridSize="10" guides="1" tooltips="1" connect="1" arrows="1" fold="1" page="1" pageScale="1" pageWidth="2339" pageHeight="3300" math="0" shadow="0">
      <root>
        <mxCell id="WIyWlLk6GJQsqaUBKTNV-0" />
        <mxCell id="WIyWlLk6GJQsqaUBKTNV-1" parent="WIyWlLk6GJQsqaUBKTNV-0" />
        <mxCell id="c7Ch5ChVOdI9GSs2ItYN-0" value="Animal" style="swimlane;fontStyle=1;align=center;verticalAlign=top;childLayout=stackLayout;horizontal=1;startSize=26;horizontalStack=0;resizeParent=1;resizeParentMax=0;resizeLast=0;collapsible=1;marginBottom=0;" vertex="1" parent="WIyWlLk6GJQsqaUBKTNV-1">
          <mxGeometry x="60" y="440" width="160" height="450" as="geometry" />
        </mxCell>
        <mxCell id="c7Ch5ChVOdI9GSs2ItYN-1" value="#species: String&#xa;#bmi: BMI&#xa;#lifeSpanDays: double&#xa;#biologicalSex: String&#xa;#spawnTime: Date&#xa;#deathTime: Date&#xa;#hungerPercent: int&#xa;#sleepPercent: int" style="text;strokeColor=none;fillColor=none;align=left;verticalAlign=top;spacingLeft=4;spacingRight=4;overflow=hidden;rotatable=0;points=[[0,0.5],[1,0.5]];portConstraint=eastwest;" vertex="1" parent="c7Ch5ChVOdI9GSs2ItYN-0">
          <mxGeometry y="26" width="160" height="124" as="geometry" />
        </mxCell>
        <mxCell id="c7Ch5ChVOdI9GSs2ItYN-2" value="" style="line;strokeWidth=1;fillColor=none;align=left;verticalAlign=middle;spacingTop=-1;spacingLeft=3;spacingRight=3;rotatable=0;labelPosition=right;points=[];portConstraint=eastwest;" vertex="1" parent="c7Ch5ChVOdI9GSs2ItYN-0">
          <mxGeometry y="150" width="160" height="8" as="geometry" />
        </mxCell>
        <mxCell id="c7Ch5ChVOdI9GSs2ItYN-3" value="+Animal(&#xa;species: String&#xa;heightM: double&#xa;weightKg: double&#xa;lifeSpanDays: double&#xa;biologicalSex: String&#xa;)&#xa;&#xa;+eat(): void&#xa;+setAsHungry(): void&#xa;+isHungry(): void&#xa;+sleep(): void&#xa;+setAsSleepy(): void&#xa;+isSleepy(): void&#xa;+die(): void&#xa;+isAlive(): boolean&#xa;+move(): void&#xa;+toString(): String&#xa;+status(): String&#xa;+dateCreated(): String&#xa;" style="text;strokeColor=none;fillColor=none;align=left;verticalAlign=top;spacingLeft=4;spacingRight=4;overflow=hidden;rotatable=0;points=[[0,0.5],[1,0.5]];portConstraint=eastwest;" vertex="1" parent="c7Ch5ChVOdI9GSs2ItYN-0">
          <mxGeometry y="158" width="160" height="292" as="geometry" />
        </mxCell>
        <mxCell id="c7Ch5ChVOdI9GSs2ItYN-8" value="BMI" style="swimlane;fontStyle=1;align=center;verticalAlign=top;childLayout=stackLayout;horizontal=1;startSize=26;horizontalStack=0;resizeParent=1;resizeParentMax=0;resizeLast=0;collapsible=1;marginBottom=0;" vertex="1" parent="WIyWlLk6GJQsqaUBKTNV-1">
          <mxGeometry x="60" y="180" width="160" height="190" as="geometry" />
        </mxCell>
        <mxCell id="c7Ch5ChVOdI9GSs2ItYN-9" value="-heightM: double&#xa;-weightKg: double" style="text;strokeColor=none;fillColor=none;align=left;verticalAlign=top;spacingLeft=4;spacingRight=4;overflow=hidden;rotatable=0;points=[[0,0.5],[1,0.5]];portConstraint=eastwest;" vertex="1" parent="c7Ch5ChVOdI9GSs2ItYN-8">
          <mxGeometry y="26" width="160" height="34" as="geometry" />
        </mxCell>
        <mxCell id="c7Ch5ChVOdI9GSs2ItYN-10" value="" style="line;strokeWidth=1;fillColor=none;align=left;verticalAlign=middle;spacingTop=-1;spacingLeft=3;spacingRight=3;rotatable=0;labelPosition=right;points=[];portConstraint=eastwest;" vertex="1" parent="c7Ch5ChVOdI9GSs2ItYN-8">
          <mxGeometry y="60" width="160" height="8" as="geometry" />
        </mxCell>
        <mxCell id="c7Ch5ChVOdI9GSs2ItYN-11" value="+BMI(&#xa;heightM: double&#xa;weightKg: double&#xa;)&#xa;&#xa;+getWightKg(): double&#xa;+getValue(): double&#xa;+toString(): String" style="text;strokeColor=none;fillColor=none;align=left;verticalAlign=top;spacingLeft=4;spacingRight=4;overflow=hidden;rotatable=0;points=[[0,0.5],[1,0.5]];portConstraint=eastwest;" vertex="1" parent="c7Ch5ChVOdI9GSs2ItYN-8">
          <mxGeometry y="68" width="160" height="122" as="geometry" />
        </mxCell>
        <mxCell id="c7Ch5ChVOdI9GSs2ItYN-12" value="1" style="endArrow=open;html=1;endSize=12;startArrow=diamondThin;startSize=14;startFill=1;align=left;verticalAlign=bottom;exitX=0.5;exitY=0;exitDx=0;exitDy=0;entryX=0.5;entryY=1.008;entryDx=0;entryDy=0;entryPerimeter=0;" edge="1" parent="WIyWlLk6GJQsqaUBKTNV-1" source="c7Ch5ChVOdI9GSs2ItYN-0" target="c7Ch5ChVOdI9GSs2ItYN-11">
          <mxGeometry x="0.4488" y="-10" relative="1" as="geometry">
            <mxPoint x="140" y="430" as="sourcePoint" />
            <mxPoint x="139.5" y="380" as="targetPoint" />
            <mxPoint as="offset" />
          </mxGeometry>
        </mxCell>
        <mxCell id="c7Ch5ChVOdI9GSs2ItYN-13" value="Mammal" style="swimlane;fontStyle=1;align=center;verticalAlign=top;childLayout=stackLayout;horizontal=1;startSize=26;horizontalStack=0;resizeParent=1;resizeParentMax=0;resizeLast=0;collapsible=1;marginBottom=0;" vertex="1" parent="WIyWlLk6GJQsqaUBKTNV-1">
          <mxGeometry x="380" y="70" width="240" height="520" as="geometry" />
        </mxCell>
        <mxCell id="c7Ch5ChVOdI9GSs2ItYN-14" value="-furLengthCm: double&#xa;-furType: String&#xa;-toothCounter: int&#xa;-bodyTemperatureC: double&#xa;-avgBodyTemperatureC: double&#xa;-mammaryGland: boolean&#xa;-sweatGland: boolean&#xa;-isPregnant: boolean" style="text;strokeColor=none;fillColor=none;align=left;verticalAlign=top;spacingLeft=4;spacingRight=4;overflow=hidden;rotatable=0;points=[[0,0.5],[1,0.5]];portConstraint=eastwest;" vertex="1" parent="c7Ch5ChVOdI9GSs2ItYN-13">
          <mxGeometry y="26" width="240" height="124" as="geometry" />
        </mxCell>
        <mxCell id="c7Ch5ChVOdI9GSs2ItYN-15" value="" style="line;strokeWidth=1;fillColor=none;align=left;verticalAlign=middle;spacingTop=-1;spacingLeft=3;spacingRight=3;rotatable=0;labelPosition=right;points=[];portConstraint=eastwest;" vertex="1" parent="c7Ch5ChVOdI9GSs2ItYN-13">
          <mxGeometry y="150" width="240" height="8" as="geometry" />
        </mxCell>
        <mxCell id="c7Ch5ChVOdI9GSs2ItYN-16" value="+Mammal(&#xa;species: String&#xa;heightM: double&#xa;weight: double&#xa;lifeSpanDays: double&#xa;biologicalSex: String&#xa;furLengthCm: double&#xa;furType: String&#xa;avgBodyTemperatureC: double&#xa;)&#xa;&#xa;+sweet(): void&#xa;+produceMilk(): void&#xa;+meat(mammal: Mammal): void&#xa;+fertalize(): void&#xa;+isPregnant(): boolean&#xa;+bite(): void&#xa;+replaceTeeth(): void&#xa;+increaseBodyHeat(celsius: double): void&#xa;+decreaseBodyHeat(celsius: double): void&#xa;+adjustBodyHeat(): void&#xa;+move(): void&#xa;+ toString(): String&#xa;+mammalInformation(): String&#xa;+eat(): void&#xa;" style="text;strokeColor=none;fillColor=none;align=left;verticalAlign=top;spacingLeft=4;spacingRight=4;overflow=hidden;rotatable=0;points=[[0,0.5],[1,0.5]];portConstraint=eastwest;" vertex="1" parent="c7Ch5ChVOdI9GSs2ItYN-13">
          <mxGeometry y="158" width="240" height="362" as="geometry" />
        </mxCell>
        <mxCell id="c7Ch5ChVOdI9GSs2ItYN-18" value="" style="endArrow=block;endFill=0;endSize=12;html=1;edgeStyle=orthogonalEdgeStyle;exitX=-0.004;exitY=0.146;exitDx=0;exitDy=0;exitPerimeter=0;entryX=1.013;entryY=0.04;entryDx=0;entryDy=0;entryPerimeter=0;" edge="1" parent="WIyWlLk6GJQsqaUBKTNV-1" source="c7Ch5ChVOdI9GSs2ItYN-16" target="c7Ch5ChVOdI9GSs2ItYN-0">
          <mxGeometry width="160" relative="1" as="geometry">
            <mxPoint x="300" y="280" as="sourcePoint" />
            <mxPoint x="230" y="460" as="targetPoint" />
          </mxGeometry>
        </mxCell>
      </root>
    </mxGraphModel>
  </diagram>
</mxfile>
